<svg id="Capa_1" enable-background="new 0 0 511.995 511.995" height="512" viewBox="0 0 511.995 511.995" width="512" xmlns="http://www.w3.org/2000/svg"><g><g><path d="m87.444 16.647v455.717l339.256 39.63 6.174-.093c21.836 0 39.537-17.701 39.537-39.537v-455.717c0-9.194-7.453-16.647-16.647-16.647h-351.672c-9.194 0-16.648 7.453-16.648 16.647z" fill="#eaf6ff"/></g><g><path d="m455.764 0h-33.294c9.194 0 16.647 7.453 16.647 16.647v455.717c0 17.811-11.778 32.866-27.97 37.814l15.553 1.817 6.174-.093c21.836 0 39.537-17.701 39.537-39.537v-455.718c0-9.194-7.453-16.647-16.647-16.647z" fill="#d8ecfe"/></g><g><g><g><g><circle cx="136.346" cy="287.966" fill="#bbec6c" r="15.607"/></g></g></g><g><g><g><circle cx="136.346" cy="360.797" fill="#bbec6c" r="15.607"/></g></g></g></g><g><path d="m79.121 511.902c-21.836 0-39.537-17.701-39.537-39.537v-22.89c0-5.746 4.658-10.405 10.405-10.405h332.944c5.746 0 10.405 4.658 10.405 10.405v22.89c0 21.836 17.701 39.537 39.537 39.537z" fill="#b3dafe"/></g><g><g><path d="m401.463 390.268-30.525 15.262c-2.929 1.465-6.377 1.465-9.306 0l-30.525-15.262c-23.077-11.538-37.654-35.124-37.654-60.925v-54.592c0-7.433 4.927-13.965 12.074-16.007l55.613-15.889c3.363-.961 6.927-.961 10.29 0l55.613 15.889c7.147 2.042 12.074 8.574 12.074 16.007v54.592c0 25.8-14.577 49.386-37.654 60.925z" fill="#bbec6c"/></g><g><path d="m427.043 258.744-23.863-6.818c2.949 3.034 4.724 7.151 4.724 11.599v65.818c0 25.801-14.577 49.387-37.654 60.925l-19.571 9.786 10.954 5.477c2.929 1.465 6.377 1.465 9.306 0l30.525-15.262c23.077-11.538 37.654-35.124 37.654-60.925v-54.592c-.001-7.434-4.928-13.966-12.075-16.008z" fill="#a2e62e"/></g><g><path d="m356.033 321.907-7.653-7.653c-6.095-6.095-15.976-6.095-22.071 0-6.095 6.095-6.095 15.976 0 22.071l18.689 18.689c6.095 6.095 15.976 6.095 22.071 0l39.194-39.194c6.095-6.095 6.095-15.976 0-22.071-6.095-6.095-15.976-6.095-22.071 0z" fill="#eaf6ff"/></g></g><g><g><path d="m262.24 279.859h-79.074c-4.142 0-7.5-3.358-7.5-7.5s3.358-7.5 7.5-7.5h79.074c4.142 0 7.5 3.358 7.5 7.5s-3.358 7.5-7.5 7.5z" fill="#b3dafe"/></g><g><path d="m197.732 311.072h-14.566c-4.142 0-7.5-3.358-7.5-7.5s3.358-7.5 7.5-7.5h14.566c4.142 0 7.5 3.358 7.5 7.5s-3.357 7.5-7.5 7.5z" fill="#b3dafe"/></g><g><path d="m262.24 311.072h-31.213c-4.142 0-7.5-3.358-7.5-7.5s3.358-7.5 7.5-7.5h31.213c4.142 0 7.5 3.358 7.5 7.5s-3.358 7.5-7.5 7.5z" fill="#b3dafe"/></g></g><g><g><path d="m262.24 352.69h-79.074c-4.142 0-7.5-3.358-7.5-7.5s3.358-7.5 7.5-7.5h79.074c4.142 0 7.5 3.358 7.5 7.5s-3.358 7.5-7.5 7.5z" fill="#b3dafe"/></g><g><path d="m197.732 383.904h-14.566c-4.142 0-7.5-3.358-7.5-7.5s3.358-7.5 7.5-7.5h14.566c4.142 0 7.5 3.358 7.5 7.5s-3.357 7.5-7.5 7.5z" fill="#b3dafe"/></g><g><path d="m262.24 383.904h-31.213c-4.142 0-7.5-3.358-7.5-7.5s3.358-7.5 7.5-7.5h31.213c4.142 0 7.5 3.358 7.5 7.5s-3.358 7.5-7.5 7.5z" fill="#b3dafe"/></g></g><g><g><g><g><g><g><path d="m357.963 105.461-78.034 14.682-78.035-14.682 8.376-50.256c1.171-7.024 7.248-12.172 14.368-12.172h110.581c7.121 0 13.198 5.148 14.368 12.172z" fill="#c4e2ff"/></g></g><g><g><path d="m349.587 55.205c-1.171-7.024-7.248-12.172-14.368-12.172h-31.214c7.121 0 13.198 5.148 14.368 12.172l8.376 50.256 15.607 10.405 15.607-10.405z" fill="#b3dafe"/></g></g><g><g><path d="m373.57 167.889h-187.283v-52.023c0-5.746 4.658-10.405 10.405-10.405h166.474c5.746 0 10.405 4.658 10.405 10.405v52.023z" fill="#ffe177"/></g></g><g><g><path d="m363.165 105.461h-31.214c5.746 0 10.405 4.658 10.405 10.405v52.023h31.214v-52.023c0-5.747-4.659-10.405-10.405-10.405z" fill="#ffd15b"/></g></g><g><g><path d="m227.905 199.102h-20.809c-5.746 0-10.405-4.658-10.405-10.405v-20.809h41.618v20.809c.001 5.747-4.658 10.405-10.404 10.405z" fill="#7a6d79"/></g></g><g><g><path d="m331.951 199.102h20.809c5.746 0 10.405-4.658 10.405-10.405v-20.809h-41.618v20.809c0 5.747 4.658 10.405 10.404 10.405z" fill="#7a6d79"/></g></g></g></g></g><g><g><path d="m300.738 144.175h-41.619c-4.142 0-7.5-3.358-7.5-7.5s3.358-7.5 7.5-7.5h41.619c4.143 0 7.5 3.358 7.5 7.5s-3.358 7.5-7.5 7.5z" fill="#ffc344"/></g></g><g><g><path d="m227.905 144.175h-10.405c-4.142 0-7.5-3.358-7.5-7.5s3.358-7.5 7.5-7.5h10.405c4.142 0 7.5 3.358 7.5 7.5s-3.358 7.5-7.5 7.5z" fill="#eaf6ff"/></g></g><g><g><path d="m342.356 144.175h-10.404c-4.143 0-7.5-3.358-7.5-7.5s3.357-7.5 7.5-7.5h10.404c4.143 0 7.5 3.358 7.5 7.5s-3.357 7.5-7.5 7.5z" fill="#eaf6ff"/></g></g><g><g><path d="m383.977 175.392h-208.097c-4.142 0-7.5-3.358-7.5-7.5s3.358-7.5 7.5-7.5h208.097c4.143 0 7.5 3.358 7.5 7.5s-3.357 7.5-7.5 7.5z" fill="#b3dafe"/></g></g></g></g></svg>