<?xml version="1.0" encoding="utf-8"?>
<!-- Generator: Adobe Illustrator 25.0.0, SVG Export Plug-In . SVG Version: 6.00 Build 0)  -->
<svg version="1.1" id="Capa_1" xmlns="http://www.w3.org/2000/svg" xmlns:xlink="http://www.w3.org/1999/xlink" x="0px" y="0px"
	 viewBox="0 0 512 512" style="enable-background:new 0 0 512 512;" xml:space="preserve">
<style type="text/css">
	.st0{fill:#FFFFFF;}
</style>
<g>
	<path class="st0" d="M120,0v422H0v15c0,41.4,33.6,75,75,75h362c41.4,0,75-33.6,75-75V0H120z M75,482c-19.6,0-36.2-12.5-42.4-30
		h330.9c2.3,11.1,7,21.3,13.5,30H75z M482,437c0,24.8-20.2,45-45,45s-45-20.2-45-45v-15H150V30h332V437z"/>
	<path class="st0" d="M210,151h212v30H210V151z"/>
	<path class="st0" d="M210,211h212v30H210V211z"/>
	<path class="st0" d="M210,271h212v30H210V271z"/>
</g>
</svg>
