<?xml version="1.0" encoding="utf-8"?>
<!-- Generator: Adobe Illustrator 25.0.0, SVG Export Plug-In . SVG Version: 6.00 Build 0)  -->
<svg version="1.1" id="Capa_1" xmlns="http://www.w3.org/2000/svg" xmlns:xlink="http://www.w3.org/1999/xlink" x="0px" y="0px"
	 viewBox="0 0 416.2 491.2" style="enable-background:new 0 0 416.2 491.2;" xml:space="preserve">
<style type="text/css">
	.st0{fill:#FFFFFF;}
</style>
<g>
	<g>
		<path class="st0" d="M32.5,112.4c-5.9,0-10.8-4.8-10.8-10.8V60.4C21.7,29.8,46.6,5,77.1,5H105c30.5,0,55.4,24.8,55.4,55.4v41.2
			c0,2.9-1.1,5.6-3.2,7.6c-2,2-4.7,3.2-7.6,3.2H32.5z M138.8,90.8V60.4c0-18.6-15.2-33.8-33.8-33.8H77.1
			c-18.6,0-33.8,15.2-33.8,33.8v30.5H138.8z"/>
		<path class="st0" d="M105,8.2H77.1C48.4,8.2,25,31.6,25,60.4v41.2c0,4.2,3.4,7.5,7.5,7.5h117c4.2,0,7.5-3.4,7.5-7.5V60.4
			C157.1,31.6,133.7,8.2,105,8.2z M142,94.1h-102V60.4c0-20.4,16.6-37,37-37H105c20.4,0,37,16.6,37,37V94.1z"/>
	</g>
</g>
<g>
	<g>
		<path class="st0" d="M32.5,385.8c-6.1,0-11-5-11-11V101.6c0-6.1,5-11,11-11h117c6.1,0,11,5,11,11v273.1c0,6.1-5,11-11,11H32.5z
			 M138.5,363.7l0-251h-95v251H138.5z"/>
		<path class="st0" d="M149.6,93.8h-117c-4.3,0-7.8,3.5-7.8,7.8v273.1c0,4.3,3.5,7.8,7.8,7.8h117c4.3,0,7.8-3.5,7.8-7.8V101.6
			C157.4,97.3,153.9,93.8,149.6,93.8z M141.8,366.9H40.3V109.4h101.4L141.8,366.9L141.8,366.9z"/>
	</g>
</g>
<g>
	<g>
		<path class="st0" d="M59.1,432.6c-4,0-7.7-2.1-9.6-5.6l-26.5-46.8c-1.9-3.4-1.9-7.6,0.1-11c2-3.4,5.6-5.5,9.5-5.5h117
			c3.9,0,7.6,2.1,9.5,5.5c2,3.4,2,7.6,0.1,11L132.6,427c-2,3.5-5.7,5.6-9.6,5.6H59.1z M116.6,410.5l14-24.7H51.5l14,24.7H116.6z"/>
		<path class="st0" d="M156.3,370.8c-1.4-2.4-4-3.9-6.7-3.9h-117c-2.8,0-5.3,1.5-6.7,3.9c-1.4,2.4-1.4,5.4,0,7.8l26.5,46.8
			c1.4,2.4,4,4,6.8,4h64c2.8,0,5.4-1.5,6.8-4l26.5-46.8C157.7,376.1,157.7,373.2,156.3,370.8z M118.5,413.7H63.6l-17.7-31.2h90.3
			L118.5,413.7z"/>
	</g>
</g>
<g>
	<g>
		<path class="st0" d="M91.1,487.2c-3.9,0-7.6-2.1-9.5-5.5l-32-54.6c-2-3.4-2-7.6-0.1-11.1c2-3.4,5.6-5.6,9.6-5.6h64
			c3.9,0,7.6,2.1,9.6,5.5c2,3.4,1.9,7.7-0.1,11.1l-32,54.6C98.6,485.1,95,487.2,91.1,487.2z M91.1,454.3l12.7-21.7H78.3L91.1,454.3z
			"/>
		<path class="st0" d="M129.8,417.7c-1.4-2.4-4-3.9-6.8-3.9h-64c-2.8,0-5.4,1.5-6.8,3.9c-1.4,2.4-1.4,5.4,0,7.8l32,54.6
			c1.4,2.4,4,3.9,6.7,3.9c2.8,0,5.3-1.5,6.7-3.9l32-54.6C131.2,423.1,131.2,420.1,129.8,417.7z M91.1,460.7l-18.4-31.4h36.7
			L91.1,460.7z"/>
	</g>
</g>
<g>
	<g>
		<path class="st0" d="M55.9,268.7c-6.1,0-11-5-11-11V132.8c0-6.1,5-11,11-11s11,5,11,11v124.8C67,263.8,62,268.7,55.9,268.7z"/>
		<path class="st0" d="M55.9,125c-4.3,0-7.8,3.5-7.8,7.8v124.8c0,4.3,3.5,7.8,7.8,7.8s7.8-3.5,7.8-7.8V132.8
			C63.7,128.5,60.2,125,55.9,125z"/>
	</g>
</g>
<g>
	<g>
		<path class="st0" d="M212,479.1c-5.9,0-10.8-4.8-10.8-10.8V179.6c0-5.9,4.8-10.8,10.8-10.8h171.7c5.9,0,10.8,4.8,10.8,10.8V398
			c0,44.7-36.4,81.1-81.1,81.1H212z M313.4,457.6c32.8,0,59.5-26.7,59.5-59.5V190.4H222.8v267.1H313.4z"/>
		<path class="st0" d="M383.7,172.1H212c-4.2,0-7.5,3.4-7.5,7.5v288.7c0,4.2,3.4,7.5,7.5,7.5h101.4c42.9,0,77.8-34.9,77.8-77.8
			V179.6C391.2,175.5,387.8,172.1,383.7,172.1z M376.1,398.1c0,34.6-28.2,62.8-62.8,62.8h-93.8V187.2h156.6V398.1z"/>
	</g>
</g>
<g>
	<g>
		<path class="st0" d="M212,378c-6.1,0-11-5-11-11v-93.6c0-6.1,5-11,11-11h171.7c6.1,0,11,5,11,11v93.6c0,6.1-5,11-11,11H212z
			 M372.6,355.9v-71.5H223v71.5H372.6z"/>
		<path class="st0" d="M383.7,265.5H212c-4.3,0-7.8,3.5-7.8,7.8v93.6c0,4.3,3.5,7.8,7.8,7.8h171.7c4.3,0,7.8-3.5,7.8-7.8v-93.6
			C391.5,269,388,265.5,383.7,265.5z M375.9,359.1H219.8v-78h156.1V359.1z"/>
	</g>
</g>
</svg>
