<?xml version="1.0" encoding="utf-8"?>
<!-- Generator: Adobe Illustrator 25.2.0, SVG Export Plug-In . SVG Version: 6.00 Build 0)  -->
<svg version="1.1" id="圖層_1" xmlns="http://www.w3.org/2000/svg" xmlns:xlink="http://www.w3.org/1999/xlink" x="0px" y="0px"
	 viewBox="0 0 725.1 478" style="enable-background:new 0 0 725.1 478;" xml:space="preserve">
<style type="text/css">
	.st0{fill:#666666;}
</style>
<path class="st0" d="M710.4,0H14.7C6.6,0,0,6.6,0,14.6v448.7c0,8.1,6.6,14.7,14.7,14.7h695.7c8.1,0,14.7-6.6,14.7-14.7V14.6
	C725.1,6.6,718.6,0,710.4,0z M272.9,132.8c0,43.2-35,78-78,78c-43.1,0-78-34.8-78-78s34.9-78.1,78-78.1S272.9,89.6,272.9,132.8z
	 M652.5,403H161.9h-39.3v-5.1l104.7-119.6l58.9,39.7l68.6-117.7l79.8,56.5l72.1-149.4l146.6,290v5.5H652.5L652.5,403z"/>
</svg>
