<?xml version="1.0" encoding="utf-8"?>
<!-- Generator: Adobe Illustrator 25.0.0, SVG Export Plug-In . SVG Version: 6.00 Build 0)  -->
<svg version="1.1" id="Capa_1" xmlns="http://www.w3.org/2000/svg" xmlns:xlink="http://www.w3.org/1999/xlink" x="0px" y="0px"
	 viewBox="0 0 512 512" style="enable-background:new 0 0 512 512;" xml:space="preserve">
<style type="text/css">
	.st0{fill:#FFFFFF;}
</style>
<g>
	<g>
		<path class="st0" d="M63.9,270.2c9.6,1.4,16.1,10.3,13.1,19.4L43.6,392c-9.5,29.1,12.2,59,42.8,59h60.5l40-120h57.8l20-60h63.2
			l70-210H79.5C35.7,61,0,96.7,0,140.5V196C0,233.6,27.7,264.8,63.9,270.2L63.9,270.2z M174.9,271.8L125.2,421H86.3
			c-10.2,0-17.4-9.9-14.3-19.7l33.4-102.4c3-9.2,2.9-19-0.1-27.9h69.8C175.1,271.3,175,271.5,174.9,271.8L174.9,271.8z M222.9,301
			h-26.1l6.6-19.7c2-6.1,7.8-10.3,14.2-10.3h15.3L222.9,301z M356.2,91l-50,150h-31.6l50-150H356.2z M30,140.5
			C30,113.2,52.2,91,79.5,91h213.4l-50,150c-0.8,0-141.5,0-171.9,0c-29.1-6.1-41-24.6-41-45L30,140.5L30,140.5z"/>
		<path class="st0" d="M477.6,249c22.2-22.1,34.4-51.6,34.4-83s-12.2-60.9-34.4-83l-21.2,21.2c16.5,16.5,25.6,38.4,25.6,61.8
			s-9.1,45.3-25.6,61.8L477.6,249z"/>
		<path class="st0" d="M435.2,206.6c22.4-22.4,22.4-58.8,0-81.2L414,146.6c10.7,10.7,10.7,28.1,0,38.8L435.2,206.6z"/>
	</g>
</g>
</svg>
