<?xml version="1.0" encoding="utf-8"?>
<!-- Generator: Adobe Illustrator 25.0.0, SVG Export Plug-In . SVG Version: 6.00 Build 0)  -->
<svg version="1.1" id="Capa_1" xmlns="http://www.w3.org/2000/svg" xmlns:xlink="http://www.w3.org/1999/xlink" x="0px" y="0px"
	 viewBox="0 0 511.9 511.9" style="enable-background:new 0 0 511.9 511.9;" xml:space="preserve">
<style type="text/css">
	.st0{fill:#FFFFFF;}
</style>
<g>
	<g>
		<path class="st0" d="M411.5,256.6h-94.9v-1c0-45.6,6-88.7,17.8-128c2.9-9.7,4.4-19.8,4.4-30.1c0-27.2-10.5-53.1-28.7-70.8
			c-15.6-15.2-35.5-23.2-56.2-22.6c-22.1,0.6-42.7,11-58,29.2C181.1,50.9,173,73.9,173.1,98c0,10.1,1.5,20.1,4.3,29.6
			c11.9,39.8,17.9,83.1,17.9,128.9v0.4h-94.9C45.1,256.6,0,301.9,0,357.6v58.2c0,8.1,6.5,14.7,14.5,15v32.1c0,8.3,6.7,15,15,15
			h452.9c8.3,0,15-6.7,15-15v-32.1c8.1-0.3,14.5-6.9,14.5-15v-58.2C512,301.9,466.9,256.6,411.5,256.6z M254.8,34
			c12.5-0.3,24.7,4.7,34.5,14.1C301.8,60.3,309,78.2,309,97.4c0,7.4-1,14.6-3.1,21.5c-12.7,42.1-19.1,88.1-19.1,136.6v1h-61.3v-0.4
			c-0.2-48.5-6.6-94.7-19.3-137.3c-2-6.8-3-13.8-3.1-21.1C203,63.3,226.2,34.7,254.8,34z M467.5,447.8H44.6v-17h422.9V447.8z
			 M481.7,400.8H30v-43.2c0-39.1,31.6-71,70.4-71h109.8h91.3h109.8c38.8,0,70.4,31.8,70.4,71L481.7,400.8L481.7,400.8z"/>
	</g>
</g>
</svg>
